<svg xmlns="http://www.w3.org/2000/svg" version="1.1" xmlns:xlink="http://www.w3.org/1999/xlink" xmlns:svgjs="http://svgjs.dev/svgjs" width="2000" height="1247" viewBox="0 0 2000 1247"><g transform="matrix(1,0,0,1,-1.2121212121212466,0.504858299595071)"><svg viewBox="0 0 396 247" data-background-color="#ffe8e1" preserveAspectRatio="xMidYMid meet" height="1247" width="2000" xmlns="http://www.w3.org/2000/svg" xmlns:xlink="http://www.w3.org/1999/xlink"><g id="tight-bounds" transform="matrix(1,0,0,1,0.2400000000000091,-0.09999999999999432)"><svg viewBox="0 0 395.52 247.2" height="247.2" width="395.52"><g><svg></svg></g><g><svg viewBox="0 0 395.52 247.2" height="247.2" width="395.52"><g transform="matrix(1,0,0,1,75.54432,87.7852153811826)"><svg viewBox="0 0 244.43135999999998 71.6295692376348" height="71.6295692376348" width="244.43135999999998"><g><svg viewBox="0 0 244.43135999999998 71.6295692376348" height="71.6295692376348" width="244.43135999999998"><g><svg viewBox="0 0 244.43135999999998 71.6295692376348" height="71.6295692376348" width="244.43135999999998"><g><svg viewBox="0 0 244.43135999999998 71.6295692376348" height="71.6295692376348" width="244.43135999999998"><g id="textblocktransform"><svg viewBox="0 0 244.43135999999998 71.6295692376348" height="71.6295692376348" width="244.43135999999998" id="textblock"><g><svg viewBox="0 0 244.43135999999998 71.6295692376348" height="71.6295692376348" width="244.43135999999998"><g transform="matrix(1,0,0,1,0,0)"><svg width="244.43135999999998" viewBox="1.7 -38.25 134.43 39.4" height="71.6295692376348" data-palette-color="#efaac4"><path d="M13.15 0Q12.75 0 12.48-0.25 12.2-0.5 12.2-0.85L12.2-0.85 12.2-7.4Q12.2-8 9.65-8.5 7.1-9 5.45-9L5.45-9Q5.35-9 5.13-8.25 4.9-7.5 4.8-7.15L4.8-7.15Q4.15-4.55 3.5-1.6L3.5-1.6 3.25-0.5Q3.15-0.1 2.75-0.1L2.75-0.1Q2.35-0.1 2.02-0.35 1.7-0.6 1.7-0.95L1.7-0.95 1.75-1.05 1.75-1.1 2.3-3.6Q2.9-5.95 3.35-8.2L3.35-8.2Q3.85-10.75 4.1-11.5L4.1-11.5Q4.5-13.15 5.7-19.75L5.7-19.75 6-21.4Q7.3-29.1 7.8-31.1L7.8-31.1Q8.05-32.3 8.7-34.65L8.7-34.65Q8.95-35.65 9.4-36.65L9.4-36.65Q9.85-37.5 10.15-37.5L10.15-37.5Q10.95-37.5 11.3-37L11.3-37Q11.55-36.55 12.08-32.05 12.6-27.55 13-22.95L13-22.95 13.65-14.65Q13.65-12.5 13.95-8.15L13.95-8.15Q14.25-3.75 14.25-1.6L14.25-1.6 14.25-1.4Q14.25-0.85 14.1-0.4L14.1-0.4Q13.9 0 13.15 0L13.15 0ZM11.15-9.65Q12.15-9.65 12.15-10.15L12.15-10.15Q12.15-13.25 11.8-18.63 11.45-24 11.05-28.1L11.05-28.1Q10.95-29.85 10.65-31.95L10.65-31.95 10.45-33.9Q10.45-33.85 10.35-34.45L10.35-34.45 10.25-35.05Q9.85-33.95 9.47-32 9.1-30.05 8.7-27.4L8.7-27.4Q7.5-19.95 6.65-16.2L6.65-16.2 6.2-14.5Q5.45-12 5.45-10.7L5.45-10.7 5.45-10.4Q7.65-9.7 10.5-9.7L10.5-9.7 10.8-9.7Q10.95-9.65 11.15-9.65L11.15-9.65ZM29.6 0.85L28.9 0.6Q28.3-0.05 27.6-2.85 26.9-5.65 26.3-9.15L26.3-9.15Q25.9-12 25.15-14.8L25.15-14.8Q24.55-17.3 24-17.3L24-17.3 23.85-17.3Q22.75-17.3 22.75-16.6L22.75-16.6Q22.75-13 23.15-5.65L23.15-5.65Q23.35-1.15 23.6-0.4L23.6-0.4 23.2 0.45 22.5 0.45 22.1 0.05Q21.3-23.05 21.3-31.45L21.3-31.45Q21.3-32 21.37-32.35 21.45-32.7 21.7-33L21.7-33Q21.9-33.35 22.4-33.35L22.4-33.35Q24.95-33.35 26.5-32.1 28.05-30.85 28.05-28.5L28.05-28.5 28.05-24.85Q28.05-23.9 27.42-22.3 26.8-20.7 26.05-19.35L26.05-19.35 25.4-18.1Q25.95-15.55 27.57-8.93 29.2-2.3 29.35-1.9L29.35-1.9Q29.4-1.85 29.47-1.65 29.55-1.45 29.8-1.05L29.8-1.05Q30.15-0.35 30.15 0.15L30.15 0.15Q30.15 0.85 29.6 0.85L29.6 0.85ZM23-18.55Q23.95-18.55 24.7-19.5 25.45-20.45 25.9-21.95L25.9-21.95Q26.7-25 26.7-26.8L26.7-26.8Q26.7-27.95 26.57-28.7 26.45-29.45 26.15-30.3L26.15-30.3Q25.55-32.05 23.3-32.05L23.3-32.05Q23.05-32.05 22.9-31.63 22.75-31.2 22.75-30.75L22.75-30.75Q22.75-27.4 22.85-24.7L22.85-24.7Q22.9-22 22.9-18.65L22.9-18.65 23-18.55ZM39.6-0.3L39.05-0.7 39-2.55Q38.95-3.35 38.95-4.35L38.95-4.35Q38.95-4.85 39-5.2L39-5.2 39.05-6.1Q39.05-6.6 38.85-7.3L38.85-7.3Q38.85-10.65 38.35-19.75L38.35-19.75Q37.85-28.55 37.8-31.7L37.8-31.7Q34.7-31.7 33.65-31.85L33.65-31.85Q32.65-32.1 32.65-32.65L32.65-32.65Q32.9-33.2 33.6-33.2L33.6-33.2Q35.1-33.2 37.95-33L37.95-33Q40.55-32.75 42.3-32.75L42.3-32.75 43.35-32.75 44.4-32.8Q45.3-32.8 45.3-32.15L45.3-32.15Q45.3-31.85 44.97-31.68 44.65-31.5 44.2-31.5L44.2-31.5Q43.2-31.5 42.1-31.6L42.1-31.6 39.95-31.7Q39.75-31.7 39.75-31.55L39.75-31.55Q39.7-31.4 39.7-30.6L39.7-30.6Q39.7-25.75 40.3-15.9L40.3-15.9Q40.85-5.7 40.85-1.25L40.85-1.25Q40.85-0.9 40.42-0.6 40-0.3 39.6-0.3L39.6-0.3ZM74.04 1.15Q73.39 1.15 73.17 0.83 72.94 0.5 72.94-0.25L72.94-0.25 72.94-4.8Q72.94-8.2 72.74-13.05L72.74-13.05Q72.69-13.95 72.69-15.65L72.69-15.65Q72.54-19.2 72.54-21.25L72.54-21.25 72.59-24.05Q72.64-25.3 72.64-26.85L72.64-26.85Q72.64-28.2 72.59-29.25L72.59-29.25Q72.54-30 72.52-30.5 72.49-31 72.44-31.3L72.44-31.3 72.34-30.95Q71.79-27.3 70.69-21.35 69.59-15.4 68.89-11.8L68.89-11.8Q68.19-8.6 67.99-7.25L67.99-7.25Q67.89-6.6 67.57-6.2 67.24-5.8 66.84-5.8L66.84-5.8Q66.44-5.8 66.14-6.2 65.84-6.6 65.79-7.35L65.79-7.35Q65.44-9.75 63.24-20.75 61.04-31.75 60.79-32.15L60.79-32.15Q60.64-27.65 60.64-22.05L60.64-22.05Q60.64-17.65 60.69-14.1L60.69-14.1Q60.74-10.55 60.74-6.15L60.74-6.15Q60.74-5.4 60.89-3.8L60.89-3.8 60.99-1.4Q60.99-0.45 60.64-0.1L60.64-0.1Q59.19-0.1 59.19-2.7L59.19-2.7 59.19-11.05 59.24-16.1Q59.29-18.35 59.29-21.2L59.29-21.2Q59.29-24.5 59.34-27.1L59.34-27.1 59.44-33.05 59.44-37.45Q59.44-37.7 59.67-37.9 59.89-38.1 60.14-38.1L60.14-38.1Q60.54-38.1 60.69-37.7L60.69-37.7Q61.14-36.2 62.94-28.85 64.74-21.5 65.64-17.5L65.64-17.5Q66.09-15.15 67.09-9.2L67.09-9.2 67.44-11.15Q67.59-12.05 67.89-13.65L67.89-13.65Q68.49-17.55 68.64-18.05L68.64-18.05 70.94-30.3 71.39-32.9 71.94-35.7 72.19-37.2Q72.24-37.7 72.49-37.98 72.74-38.25 73.04-38.25L73.04-38.25Q73.29-38.25 73.49-38 73.69-37.75 73.69-37.3L73.69-37.3 73.69-32.35Q73.69-28.6 74.14-21L74.14-21Q74.49-14 74.49-9.75L74.49-9.75Q74.49-8.4 74.64-5.6L74.64-5.6Q74.74-2 74.74-0.6L74.74-0.6Q74.74 0.5 74.59 0.85L74.59 0.85Q74.39 1.15 74.04 1.15L74.04 1.15ZM91.89 0.45Q91.14 0.45 90.94 0.28 90.74 0.1 90.64-0.65L90.64-0.65Q90.19-4.3 90.09-5.2L90.09-5.2 89.84-7.2Q88.74-7.45 87.34-7.45L87.34-7.45 85.54-7.55Q84.34-7.7 83.79-7.7L83.79-7.7Q83.49-7.7 83.44-7.45L83.44-7.45Q83.44-7.3 83.39-7.3L83.39-7.3 83.29-6.3Q83.24-5.4 82.74-2.7L82.74-2.7Q82.49-1.35 82.14-0.6L82.14-0.6Q81.74 0.25 81.39 0.25L81.39 0.25Q81.09 0.25 80.74-0.03 80.39-0.3 80.39-0.6L80.39-0.6 80.44-0.75 80.49-0.9Q81.39-4.45 81.99-7.95L81.99-7.95 82.59-11.05 83.19-14.85Q83.19-14.85 83.74-18.15L83.74-18.15Q83.99-19.5 84.64-22.5L84.64-22.5Q85.34-25.9 85.49-27.15L85.49-27.15Q85.54-27.3 85.69-29L85.69-29Q85.89-30.9 86.04-31.8L86.04-31.8Q86.19-33.1 86.34-33.3L86.34-33.3 86.69-33.3Q86.84-33.25 87.04-33.25L87.04-33.25Q87.64-33.25 87.94-33.55L87.94-33.55Q88.29-33.55 88.56-33.33 88.84-33.1 88.84-32.8L88.84-32.8Q88.84-30.4 89.19-27.3L89.19-27.3Q89.39-25.7 89.49-24.65L89.49-24.65Q90.04-18.2 92.29-0.45L92.29-0.45 92.29-0.3Q92.29 0.2 91.89 0.45L91.89 0.45ZM89.09-8.55L89.59-8.55Q89.09-15.75 87.69-29.8L87.69-29.8 84.99-16.45Q83.84-10.7 83.84-9.2L83.84-9.2Q83.84-8.95 85.74-8.75 87.64-8.55 89.09-8.55L89.09-8.55ZM101.54-0.3L100.99-0.7 100.94-2.55Q100.89-3.35 100.89-4.35L100.89-4.35Q100.89-4.85 100.94-5.2L100.94-5.2 100.99-6.1Q100.99-6.6 100.79-7.3L100.79-7.3Q100.79-10.65 100.29-19.75L100.29-19.75Q99.79-28.55 99.74-31.7L99.74-31.7Q96.64-31.7 95.59-31.85L95.59-31.85Q94.59-32.1 94.59-32.65L94.59-32.65Q94.84-33.2 95.54-33.2L95.54-33.2Q97.04-33.2 99.89-33L99.89-33Q102.49-32.75 104.24-32.75L104.24-32.75 105.29-32.75 106.34-32.8Q107.24-32.8 107.24-32.15L107.24-32.15Q107.24-31.85 106.91-31.68 106.59-31.5 106.14-31.5L106.14-31.5Q105.14-31.5 104.04-31.6L104.04-31.6 101.89-31.7Q101.69-31.7 101.69-31.55L101.69-31.55Q101.64-31.4 101.64-30.6L101.64-30.6Q101.64-25.75 102.24-15.9L102.24-15.9Q102.79-5.7 102.79-1.25L102.79-1.25Q102.79-0.9 102.36-0.6 101.94-0.3 101.54-0.3L101.54-0.3ZM117.43 0.8L116.23 0.35Q115.28 0.05 114.61-0.5 113.93-1.05 113.33-2.15L113.33-2.15Q112.28-4.15 112.08-7.9L112.08-7.9Q111.98-9.6 111.98-10.9L111.98-10.9 111.98-16.6Q111.98-19.85 112.18-22.9L112.18-22.9Q112.33-25.15 112.63-26.7 112.93-28.25 113.58-29.8L113.58-29.8Q114.28-31.4 115.13-32.05L115.13-32.05Q115.48-32.35 116.48-32.75L116.48-32.75Q117.13-33 117.73-33.3L117.73-33.3 119.73-33.3 119.88-33.3Q119.93-33.25 120.03-33.25L120.03-33.25 120.28-33.2 120.48-33.05Q120.63-32.9 120.63-32.85L120.63-32.85Q120.68-32.75 120.68-32.55L120.68-32.55 120.03-31.8 117.93-31.8Q116.98-31.8 116.21-30.88 115.43-29.95 115.03-28.55L115.03-28.55Q114.63-27.3 114.38-25.6 114.13-23.9 114.08-22.65L114.08-22.65Q113.98-21.05 113.98-20.45L113.98-20.45 113.88-20.2Q113.88-17.4 113.78-15.15L113.78-15.15 113.68-10.1Q113.68-7.9 113.98-6.05L113.98-6.05Q114.23-4.05 115.43-2.45L115.43-2.45Q116.58-0.85 118.98-0.85L118.98-0.85Q119.73-0.85 120.23-1.3L120.23-1.3Q120.98-1.3 120.98-0.75L120.98-0.75Q120.98-0.4 120.36 0.08 119.73 0.55 119.08 0.8L119.08 0.8 117.43 0.8ZM135.78 0.55Q135.78 0.05 134.28 0.05L134.28 0.05Q134.03-9.2 134.03-13.35L134.03-13.35 133.88-13.55 134.08-14Q134.08-14.9 133.88-15.85L133.88-15.85 133.13-16.05Q132.68-15.9 132.13-15.9L132.13-15.9Q131.73-15.9 130.48-16.15L130.48-16.15Q129.63-16.4 128.93-16.4L128.93-16.4 128.38-16.2Q128.38-14.45 128.33-13.05L128.33-13.05Q128.28-11.65 128.28-9.9L128.28-9.9 128.38-9.7Q128.38-8.3 128.53-5.5L128.53-5.5Q128.68-2.75 128.68-1.35L128.68-1.35Q128.68-0.8 128.48-0.43 128.28-0.05 127.88-0.05L127.88-0.05Q126.78-0.05 126.78-3.05L126.78-3.05Q126.78-5.6 126.83-7.65L126.83-7.65 126.88-12.2Q126.88-16.75 126.73-17.1L126.73-17.1Q126.98-17.6 126.98-20.4L126.98-20.4Q126.98-22.8 126.78-26.25L126.78-26.25 126.68-28.2 126.58-32.1Q126.58-32.45 126.83-32.75 127.08-33.05 127.43-33.05L127.43-33.05Q128.43-33.05 128.43-30.15L128.43-30.15Q128.43-26.75 128.38-24L128.38-24Q128.28-21.25 128.28-17.95L128.28-17.95Q128.28-17.35 132.08-17.35L132.08-17.35 132.28-17.35Q133.23-17.35 133.66-17.73 134.08-18.1 134.08-19L134.08-19Q134.08-21.65 133.73-25.9L133.73-25.9Q133.43-30.5 133.43-32.8L133.43-32.8Q133.43-33.1 133.68-33.33 133.93-33.55 134.28-33.55L134.28-33.55 134.73-33.4Q135.08-33.35 135.18-33.25L135.18-33.25Q135.18-29.35 135.48-21.6L135.48-21.6Q135.78-13.8 135.78-9.9L135.78-9.9Q135.78-4 136.13 0L136.13 0 135.78 0.55ZM132.63-17.95L132.63-18.05 132.73-17.95 132.63-17.95Z" opacity="1" transform="matrix(1,0,0,1,0,0)" fill="#efaac4" class="wordmark-text-0" data-fill-palette-color="primary" id="text-0"></path></svg></g></svg></g></svg></g></svg></g></svg></g></svg></g></svg></g><path d="M188.584 81.785L188.584 25.16 385.463 25.16 385.463 222.04 188.584 222.04 188.584 165.415 195.043 165.415 195.043 215.58 379.004 215.58 379.004 31.62 195.043 31.62 195.043 81.785Z" fill="#d4dccd" stroke="transparent" data-fill-palette-color="tertiary"></path></svg></g><defs></defs></svg><rect width="395.52" height="247.2" fill="none" stroke="none" visibility="hidden"></rect></g></svg></g></svg>