<svg xmlns="http://www.w3.org/2000/svg" version="1.1" xmlns:xlink="http://www.w3.org/1999/xlink" xmlns:svgjs="http://svgjs.dev/svgjs" width="128" height="128" viewBox="0 0 128 128"><g transform="matrix(0.8046875,0,0,0.8046875,12.333870967741937,12.333870967741937)"><svg viewBox="0 0 155 155" data-background-color="#ffe8e1" preserveAspectRatio="xMidYMid meet" height="128" width="128" xmlns="http://www.w3.org/2000/svg" xmlns:xlink="http://www.w3.org/1999/xlink"><g id="tight-bounds" transform="matrix(1,0,0,1,0.25,0.25)"><svg viewBox="0 0 154.5 154.5" height="154.5" width="154.5"><g><svg></svg></g><g><svg viewBox="0 0 154.5 154.5" height="154.5" width="154.5"><g transform="matrix(1,0,0,1,50.92886905203045,47.746371)"><svg viewBox="0 0 52.64226189593909 59.00725799999999" height="59.00725799999999" width="52.64226189593909"><g><svg viewBox="0 0 52.64226189593909 59.00725799999999" height="59.00725799999999" width="52.64226189593909"><g><svg viewBox="0 0 52.64226189593909 59.00725799999999" height="59.00725799999999" width="52.64226189593909"><g id="textblocktransform"><svg viewBox="0 0 52.64226189593909 59.00725799999999" height="59.00725799999999" width="52.64226189593909" id="textblock"><g><svg viewBox="0 0 52.64226189593909 59.00725799999999" height="59.00725799999999" width="52.64226189593909"><g transform="matrix(1,0,0,1,0,0)"><svg width="52.64226189593909" viewBox="1.7 -38.25 35.15 39.4" height="59.00725799999999" data-palette-color="#efaac4"><path d="M13.15 0Q12.75 0 12.48-0.25 12.2-0.5 12.2-0.85L12.2-0.85 12.2-7.4Q12.2-8 9.65-8.5 7.1-9 5.45-9L5.45-9Q5.35-9 5.13-8.25 4.9-7.5 4.8-7.15L4.8-7.15Q4.15-4.55 3.5-1.6L3.5-1.6 3.25-0.5Q3.15-0.1 2.75-0.1L2.75-0.1Q2.35-0.1 2.02-0.35 1.7-0.6 1.7-0.95L1.7-0.95 1.75-1.05 1.75-1.1 2.3-3.6Q2.9-5.95 3.35-8.2L3.35-8.2Q3.85-10.75 4.1-11.5L4.1-11.5Q4.5-13.15 5.7-19.75L5.7-19.75 6-21.4Q7.3-29.1 7.8-31.1L7.8-31.1Q8.05-32.3 8.7-34.65L8.7-34.65Q8.95-35.65 9.4-36.65L9.4-36.65Q9.85-37.5 10.15-37.5L10.15-37.5Q10.95-37.5 11.3-37L11.3-37Q11.55-36.55 12.08-32.05 12.6-27.55 13-22.95L13-22.95 13.65-14.65Q13.65-12.5 13.95-8.15L13.95-8.15Q14.25-3.75 14.25-1.6L14.25-1.6 14.25-1.4Q14.25-0.85 14.1-0.4L14.1-0.4Q13.9 0 13.15 0L13.15 0ZM11.15-9.65Q12.15-9.65 12.15-10.15L12.15-10.15Q12.15-13.25 11.8-18.63 11.45-24 11.05-28.1L11.05-28.1Q10.95-29.85 10.65-31.95L10.65-31.95 10.45-33.9Q10.45-33.85 10.35-34.45L10.35-34.45 10.25-35.05Q9.85-33.95 9.47-32 9.1-30.05 8.7-27.4L8.7-27.4Q7.5-19.95 6.65-16.2L6.65-16.2 6.2-14.5Q5.45-12 5.45-10.7L5.45-10.7 5.45-10.4Q7.65-9.7 10.5-9.7L10.5-9.7 10.8-9.7Q10.95-9.65 11.15-9.65L11.15-9.65ZM36.15 1.15Q35.5 1.15 35.27 0.83 35.05 0.5 35.05-0.25L35.05-0.25 35.05-4.8Q35.05-8.2 34.85-13.05L34.85-13.05Q34.8-13.95 34.8-15.65L34.8-15.65Q34.65-19.2 34.65-21.25L34.65-21.25 34.7-24.05Q34.75-25.3 34.75-26.85L34.75-26.85Q34.75-28.2 34.7-29.25L34.7-29.25Q34.65-30 34.62-30.5 34.6-31 34.55-31.3L34.55-31.3 34.45-30.95Q33.9-27.3 32.8-21.35 31.7-15.4 31-11.8L31-11.8Q30.3-8.6 30.1-7.25L30.1-7.25Q30-6.6 29.67-6.2 29.35-5.8 28.95-5.8L28.95-5.8Q28.55-5.8 28.25-6.2 27.95-6.6 27.9-7.35L27.9-7.35Q27.55-9.75 25.35-20.75 23.15-31.75 22.9-32.15L22.9-32.15Q22.75-27.65 22.75-22.05L22.75-22.05Q22.75-17.65 22.8-14.1L22.8-14.1Q22.85-10.55 22.85-6.15L22.85-6.15Q22.85-5.4 23-3.8L23-3.8 23.1-1.4Q23.1-0.45 22.75-0.1L22.75-0.1Q21.3-0.1 21.3-2.7L21.3-2.7 21.3-11.05 21.35-16.1Q21.4-18.35 21.4-21.2L21.4-21.2Q21.4-24.5 21.45-27.1L21.45-27.1 21.55-33.05 21.55-37.45Q21.55-37.7 21.77-37.9 22-38.1 22.25-38.1L22.25-38.1Q22.65-38.1 22.8-37.7L22.8-37.7Q23.25-36.2 25.05-28.85 26.85-21.5 27.75-17.5L27.75-17.5Q28.2-15.15 29.2-9.2L29.2-9.2 29.55-11.15Q29.7-12.05 30-13.65L30-13.65Q30.6-17.55 30.75-18.05L30.75-18.05 33.05-30.3 33.5-32.9 34.05-35.7 34.3-37.2Q34.35-37.7 34.6-37.98 34.85-38.25 35.15-38.25L35.15-38.25Q35.4-38.25 35.6-38 35.8-37.75 35.8-37.3L35.8-37.3 35.8-32.35Q35.8-28.6 36.25-21L36.25-21Q36.6-14 36.6-9.75L36.6-9.75Q36.6-8.4 36.75-5.6L36.75-5.6Q36.85-2 36.85-0.6L36.85-0.6Q36.85 0.5 36.7 0.85L36.7 0.85Q36.5 1.15 36.15 1.15L36.15 1.15Z" opacity="1" transform="matrix(1,0,0,1,0,0)" fill="#efaac4" class="wordmark-text-0" data-fill-palette-color="primary" id="text-0"></path></svg></g></svg></g></svg></g></svg></g></svg></g></svg></g><path d="M50.929 41.746L50.929 1 103.571 1 103.571 41.746 98.25 41.746 98.25 6.321 56.25 6.321 56.25 41.746 50.929 41.746M50.929 112.754L50.929 153.5 103.571 153.5 103.571 112.754 98.25 112.754 98.25 148.179 56.25 148.179 56.25 112.754 50.929 112.754" fill="#d4dccd" stroke="transparent" data-fill-palette-color="tertiary"></path></svg></g><defs></defs></svg><rect width="154.5" height="154.5" fill="none" stroke="none" visibility="hidden"></rect></g></svg></g></svg>